<?xml version="1.0" encoding="UTF-8" standalone="no"?>
<svg
   id="Capa_1"
   viewBox="0 0 367.2 146.4"
   version="1.1"
   xmlns="http://www.w3.org/2000/svg"
   xmlns:svg="http://www.w3.org/2000/svg">
  <defs
     id="defs1">
    <style
       id="style1">.cls-1{fill:#140fe6;}</style>
  </defs>
  <path
     class="cls-1"
     d="m89.9,126.5c-14.2,0-27.6-5.5-37.7-15.6-10.1-10.1-15.6-23.4-15.6-37.7s5.5-27.6,15.6-37.7c10.1-10.1,23.4-15.6,37.7-15.6s27.6,5.5,37.7,15.6c10.1,10.1,15.6,23.4,15.6,37.7s-5.5,27.6-15.6,37.7c-10.1,10.1-23.4,15.6-37.7,15.6Zm-.4-102.8c-13.2.1-25.6,5.4-34.9,14.9-9.1,9.3-14.2,22-14.1,35.1.1,13.2,5.4,25.6,14.9,34.9,9.3,9.1,22,14.2,35.1,14.1s25.6-5.4,34.9-14.9c9.1-9.3,14.2-22,14.1-35.1-.1-13.2-5.4-25.6-14.9-34.9-9.3-9.1-22-14.2-35.1-14.1Z"
     id="path1"
     style="fill-opacity:1.0;fill:#ffffff" />
  <path
     class="cls-1"
     d="m88.2,52.3h-4.4s-13,0-13,0c-1,0-1.9.5-2.4,1.3-.5.8-.6,1.7-.3,2.6,1,2.6,3,8.8,3,16.5s-2,14.8-2.9,17.5c-.3.8-.2,1.8.3,2.6h0c.5.8,1.5,1.3,2.4,1.3h12.9c0,0,4.4,0,4.4,0,11.5,0,20.8-9.4,20.8-20.8s-9.3-20.8-20.8-20.8Zm0,38h-16.2c1-2.9,2.5-8.2,2.7-15.2h15.1c.6,0,1.1-.5,1.1-1.1v-1.8c0-.6-.5-1.1-1.1-1.1h-15.1c-.2-6.8-1.8-12.2-2.8-15.2h16.3c9.5,0,17.2,7.8,17.2,17.2s-7.7,17.2-17.2,17.2Z"
     id="path2"
     style="fill-opacity:1.0;fill:#ffffff" />
  <path
     class="cls-1"
     d="m129.2,67.5l-1.1-1.1c-.5-.4-1.2-.4-1.6,0l-4,4.1-4-4.1c-.4-.5-1.2-.5-1.6,0l-1.1,1.1c-.5.4-.5,1.2,0,1.6l4.1,4.1-4.1,4.1c-.4.5-.4,1.2,0,1.6l1.1,1.1c.5.4,1.2.4,1.6,0l4-4.1,4,4c.4.5,1.2.5,1.6,0l1.1-1.1c.5-.4.5-1.2,0-1.6l-4-4.1,4.1-4.1c.4-.5.4-1.2,0-1.6Z"
     id="path3"
     style="fill-opacity:1.0;fill:#ffffff" />
  <path
     class="cls-1"
     d="m127.1,87c-1.9.6-3.6,1.4-5.3,2.3-.1,0-.3.1-.4.2,0-.2-.1-.4-.2-.5-1.5-3.9-6.2-5.3-9.5-2.9-1.1.8-1.3,2.3-.3,3.1.7.6,1.6.6,2.5,0,1-.7,2.3-.6,3.1.3.7.7,1.1,1.9.3,3-.2.3-.4.6-.6.8-1.4,1.8-3,3.5-4.8,5-8.3,7.2-17.9,10.2-28.7,8.3-11.2-1.9-19.4-8.2-24.7-18.3-2.5-4.8-3.6-9.9-3.7-15.3,0-5.4,1.2-10.5,3.7-15.3,5.3-10.1,13.5-16.4,24.7-18.3,10.8-1.9,20.4,1.1,28.7,8.3,1.7,1.5,3.4,3.1,4.8,5,.2.3.4.6.6.8.8,1.1.3,2.4-.3,3-.8.8-2.1.9-3.1.3-.9-.6-1.8-.6-2.5,0-1,.9-.9,2.3.3,3.1,3.4,2.4,8.1.9,9.5-2.9,0-.2.1-.3.2-.5.1,0,.3.1.4.2,1.7,1,3.4,1.8,5.3,2.3,1.4.4,2.7-.6,2.5-2-.1-.9-.7-1.5-1.6-1.7-2.4-.8-4.6-1.9-6.6-3.5-1.4-1.1-2.6-2.4-3.8-3.8-5.6-6.4-12.6-10.7-20.9-12.3-12.7-2.5-24,.7-33.6,9.4-6.3,5.8-10.1,13-11.6,21.4-.4,2.1-.5,4.2-.5,6.3,0,2.1.1,4.2.5,6.3,1.5,8.4,5.3,15.6,11.6,21.4,9.6,8.8,20.9,11.9,33.6,9.4,8.4-1.6,15.3-5.8,20.9-12.3,1.2-1.4,2.4-2.7,3.8-3.8,2-1.6,4.2-2.7,6.6-3.5.9-.3,1.5-.8,1.6-1.7.2-1.4-1.1-2.5-2.5-2Z"
     id="path4"
     style="fill-opacity:1.0;fill:#ffffff" />
  <path
     class="cls-1"
     d="m176.4,54.1v2.7h-13.1v-17.5h12.8v2.7h-9.5v4.5h8.5v2.7h-8.5v4.8h9.9Z"
     id="path5"
     style="fill-opacity:1.0;fill:#ffffff" />
  <path
     class="cls-1"
     d="m180,39.3h3.2v17.5h-3.2v-17.5Z"
     id="path6"
     style="fill-opacity:1.0;fill:#ffffff" />
  <path
     class="cls-1"
     d="m202.7,49.3c.6.7.9,1.7.9,2.8s-.6,2.7-1.8,3.5c-1.2.8-2.9,1.2-5.1,1.2h-8.7v-17.5h8.2c2.1,0,3.7.4,4.8,1.2,1.1.8,1.7,1.9,1.7,3.3s-.2,1.6-.6,2.3c-.4.7-1,1.2-1.7,1.5,1,.3,1.7.8,2.3,1.6Zm-11.5-7.4v4.8h4.6c1.1,0,2-.2,2.6-.6s.9-1,.9-1.8-.3-1.4-.9-1.8c-.6-.4-1.5-.6-2.6-.6h-4.6Zm9,9.9c0-1.7-1.3-2.5-3.8-2.5h-5.2v5.1h5.2c2.5,0,3.8-.8,3.8-2.5Z"
     id="path7"
     style="fill-opacity:1.0;fill:#ffffff" />
  <path
     class="cls-1"
     d="m218.3,52.7h-8.8l-1.7,4h-3.3l7.9-17.5h3.2l7.9,17.5h-3.4l-1.8-4Zm-1.1-2.6l-3.3-7.6-3.3,7.6h6.6Z"
     id="path8"
     style="fill-opacity:1.0;fill:#ffffff" />
  <path
     class="cls-1"
     d="m237.2,56.8l-3.6-5.1c-.1,0-.4,0-.7,0h-4v5.1h-3.2v-17.5h7.2c1.5,0,2.8.2,4,.8s2,1.2,2.6,2.1c.6.9.9,2,.9,3.3s-.3,2.4-1,3.4-1.6,1.7-2.8,2.1l4,5.8h-3.5Zm-1.2-13.9c-.7-.6-1.8-.9-3.2-.9h-3.8v7h3.8c1.4,0,2.5-.3,3.2-.9s1.1-1.5,1.1-2.6-.4-2-1.1-2.6Z"
     id="path9"
     style="fill-opacity:1.0;fill:#ffffff" />
  <path
     class="cls-1"
     d="m250,49.5l-2.8,2.9v4.5h-3.2v-17.5h3.2v9l8.7-9h3.7l-7.4,7.8,7.8,9.7h-3.8l-6.2-7.3Z"
     id="path10"
     style="fill-opacity:1.0;fill:#ffffff" />
  <path
     class="cls-1"
     d="m264.9,55.9c-1.4-.8-2.6-1.9-3.4-3.2-.8-1.4-1.2-2.9-1.2-4.6s.4-3.2,1.2-4.6c.8-1.4,1.9-2.5,3.4-3.2,1.4-.8,3-1.2,4.8-1.2s3.4.4,4.8,1.2,2.6,1.8,3.4,3.2c.8,1.4,1.2,2.9,1.2,4.6s-.4,3.3-1.2,4.6c-.8,1.4-1.9,2.4-3.4,3.2s-3,1.2-4.8,1.2-3.4-.4-4.8-1.2Zm8-2.5c.9-.5,1.7-1.3,2.2-2.2.5-.9.8-2,.8-3.2s-.3-2.2-.8-3.2c-.5-.9-1.3-1.7-2.2-2.2-.9-.5-2-.8-3.1-.8s-2.2.3-3.2.8c-.9.5-1.7,1.3-2.2,2.2-.5.9-.8,2-.8,3.2s.3,2.2.8,3.2c.5.9,1.3,1.7,2.2,2.2.9.5,2,.8,3.2.8s2.2-.3,3.1-.8Z"
     id="path11"
     style="fill-opacity:1.0;fill:#ffffff" />
  <path
     class="cls-1"
     d="m169.3,74.5l-2.8,2.9v4.5h-3.2v-17.5h3.2v9l8.7-9h3.7l-7.4,7.8,7.8,9.7h-3.8l-6.2-7.3Z"
     id="path12"
     style="fill-opacity:1.0;fill:#ffffff" />
  <path
     class="cls-1"
     d="m181.5,64.3h3.2v14.8h9.2v2.8h-12.4v-17.5Z"
     id="path13"
     style="fill-opacity:1.0;fill:#ffffff" />
  <path
     class="cls-1"
     d="m198.1,80c-1.3-1.4-2-3.3-2-5.8v-9.9h3.2v9.8c0,3.4,1.5,5.1,4.5,5.1s4.4-1.7,4.4-5.1v-9.8h3.2v9.9c0,2.5-.7,4.5-2,5.8-1.3,1.4-3.2,2-5.6,2s-4.3-.7-5.7-2Z"
     id="path14"
     style="fill-opacity:1.0;fill:#ffffff" />
  <path
     class="cls-1"
     d="m230.6,74.3c.6.7.9,1.7.9,2.8s-.6,2.7-1.8,3.5c-1.2.8-2.9,1.2-5.1,1.2h-8.7v-17.5h8.2c2.1,0,3.7.4,4.8,1.2,1.1.8,1.7,1.9,1.7,3.3s-.2,1.6-.6,2.3c-.4.7-1,1.2-1.7,1.5,1,.3,1.7.8,2.3,1.6Zm-11.5-7.4v4.8h4.6c1.1,0,2-.2,2.6-.6s.9-1,.9-1.8-.3-1.4-.9-1.8c-.6-.4-1.5-.6-2.6-.6h-4.6Zm9,9.9c0-1.7-1.3-2.5-3.8-2.5h-5.2v5.1h5.2c2.5,0,3.8-.8,3.8-2.5Z"
     id="path15"
     style="fill-opacity:1.0;fill:#ffffff" />
  <path
     class="cls-1"
     d="m163.2,89.3h7.7c1.9,0,3.5.4,5,1.1,1.5.7,2.6,1.8,3.4,3.1.8,1.3,1.2,2.9,1.2,4.6s-.4,3.3-1.2,4.6c-.8,1.3-1.9,2.4-3.4,3.1-1.4.7-3.1,1.1-5,1.1h-7.7v-17.5Zm7.5,14.8c1.3,0,2.4-.2,3.4-.7,1-.5,1.7-1.2,2.2-2.1.5-.9.8-2,.8-3.2s-.3-2.3-.8-3.2c-.5-.9-1.3-1.6-2.2-2.1-1-.5-2.1-.7-3.4-.7h-4.2v12h4.2Z"
     id="path16"
     style="fill-opacity:1.0;fill:#ffffff" />
  <path
     class="cls-1"
     d="m197,104.1v2.7h-13.1v-17.5h12.8v2.7h-9.5v4.5h8.5v2.7h-8.5v4.8h9.9Z"
     id="path17"
     style="fill-opacity:1.0;fill:#ffffff" />
  <path
     class="cls-1"
     d="m211.8,90c1.1.5,2,1.2,2.6,2.1.6.9.9,2,.9,3.3s-.3,2.4-.9,3.3c-.6.9-1.5,1.7-2.6,2.2s-2.4.8-4,.8h-4v5h-3.2v-17.5h7.2c1.5,0,2.8.2,4,.8Zm-.9,8c.7-.6,1.1-1.5,1.1-2.6s-.4-2-1.1-2.6-1.8-.9-3.2-.9h-3.8v7h3.8c1.4,0,2.5-.3,3.2-.9Z"
     id="path18"
     style="fill-opacity:1.0;fill:#ffffff" />
  <path
     class="cls-1"
     d="m222.1,105.9c-1.4-.8-2.6-1.9-3.4-3.2-.8-1.4-1.2-2.9-1.2-4.6s.4-3.2,1.2-4.6c.8-1.4,1.9-2.5,3.4-3.2,1.4-.8,3-1.2,4.8-1.2s3.4.4,4.8,1.2,2.6,1.8,3.4,3.2c.8,1.4,1.2,2.9,1.2,4.6s-.4,3.3-1.2,4.6c-.8,1.4-1.9,2.4-3.4,3.2s-3,1.2-4.8,1.2-3.4-.4-4.8-1.2Zm8-2.5c.9-.5,1.7-1.3,2.2-2.2.5-.9.8-2,.8-3.2s-.3-2.2-.8-3.2c-.5-.9-1.3-1.7-2.2-2.2-.9-.5-2-.8-3.1-.8s-2.2.3-3.2.8c-.9.5-1.7,1.3-2.2,2.2-.5.9-.8,2-.8,3.2s.3,2.2.8,3.2c.5.9,1.3,1.7,2.2,2.2.9.5,2,.8,3.2.8s2.2-.3,3.1-.8Z"
     id="path19"
     style="fill-opacity:1.0;fill:#ffffff" />
  <path
     class="cls-1"
     d="m251.3,106.8l-3.6-5.1c-.1,0-.4,0-.7,0h-4v5.1h-3.2v-17.5h7.2c1.5,0,2.8.2,4,.8s2,1.2,2.6,2.1c.6.9.9,2,.9,3.3s-.3,2.4-1,3.4-1.6,1.7-2.8,2.1l4,5.8h-3.5Zm-1.2-13.9c-.7-.6-1.8-.9-3.2-.9h-3.8v7h3.8c1.4,0,2.5-.3,3.2-.9s1.1-1.5,1.1-2.6-.4-2-1.1-2.6Z"
     id="path20"
     style="fill-opacity:1.0;fill:#ffffff" />
  <path
     class="cls-1"
     d="m261.4,92h-5.8v-2.8h14.9v2.8h-5.8v14.8h-3.2v-14.8Z"
     id="path21"
     style="fill-opacity:1.0;fill:#ffffff" />
  <path
     class="cls-1"
     d="m272.9,89.3h3.2v17.5h-3.2v-17.5Z"
     id="path22"
     style="fill-opacity:1.0;fill:#ffffff" />
  <path
     class="cls-1"
     d="m295.6,99.3c.6.7.9,1.7.9,2.8s-.6,2.7-1.8,3.5c-1.2.8-2.9,1.2-5.1,1.2h-8.7v-17.5h8.2c2.1,0,3.7.4,4.8,1.2,1.1.8,1.7,1.9,1.7,3.3s-.2,1.6-.6,2.3c-.4.7-1,1.2-1.7,1.5,1,.3,1.7.8,2.3,1.6Zm-11.5-7.4v4.8h4.6c1.1,0,2-.2,2.6-.6s.9-1,.9-1.8-.3-1.4-.9-1.8c-.6-.4-1.5-.6-2.6-.6h-4.6Zm9,9.9c0-1.7-1.3-2.5-3.8-2.5h-5.2v5.1h5.2c2.5,0,3.8-.8,3.8-2.5Z"
     id="path23"
     style="fill-opacity:1.0;fill:#ffffff" />
  <path
     class="cls-1"
     d="m303.3,105.9c-1.4-.8-2.6-1.9-3.4-3.2-.8-1.4-1.2-2.9-1.2-4.6s.4-3.2,1.2-4.6c.8-1.4,1.9-2.5,3.4-3.2,1.4-.8,3-1.2,4.8-1.2s3.4.4,4.8,1.2,2.6,1.8,3.4,3.2c.8,1.4,1.2,2.9,1.2,4.6s-.4,3.3-1.2,4.6c-.8,1.4-1.9,2.4-3.4,3.2s-3,1.2-4.8,1.2-3.4-.4-4.8-1.2Zm8-2.5c.9-.5,1.7-1.3,2.2-2.2.5-.9.8-2,.8-3.2s-.3-2.2-.8-3.2c-.5-.9-1.3-1.7-2.2-2.2-.9-.5-2-.8-3.1-.8s-2.2.3-3.2.8c-.9.5-1.7,1.3-2.2,2.2-.5.9-.8,2-.8,3.2s.3,2.2.8,3.2c.5.9,1.3,1.7,2.2,2.2.9.5,2,.8,3.2.8s2.2-.3,3.1-.8Z"
     id="path24"
     style="fill-opacity:1.0;fill:#ffffff" />
  <path
     class="cls-1"
     d="m332.1,102.7h-8.8l-1.7,4h-3.3l7.9-17.5h3.2l7.9,17.5h-3.4l-1.8-4Zm-1.1-2.6l-3.3-7.6-3.3,7.6h6.6Z"
     id="path25"
     style="fill-opacity:1.0;fill:#ffffff" />
</svg>
